<svg width="24" height="25" viewBox="0 0 24 25" fill="none" xmlns="http://www.w3.org/2000/svg">
<path d="M13.4099 12.179L19.7099 5.88902C19.8982 5.70071 20.004 5.44532 20.004 5.17902C20.004 4.91272 19.8982 4.65732 19.7099 4.46902C19.5216 4.28071 19.2662 4.17493 18.9999 4.17493C18.7336 4.17493 18.4782 4.28071 18.2899 4.46902L11.9999 10.769L5.70994 4.46902C5.52164 4.28071 5.26624 4.17493 4.99994 4.17493C4.73364 4.17493 4.47824 4.28071 4.28994 4.46902C4.10164 4.65732 3.99585 4.91272 3.99585 5.17902C3.99585 5.44532 4.10164 5.70071 4.28994 5.88902L10.5899 12.179L4.28994 18.469C4.19621 18.562 4.12182 18.6726 4.07105 18.7944C4.02028 18.9163 3.99414 19.047 3.99414 19.179C3.99414 19.311 4.02028 19.4417 4.07105 19.5636C4.12182 19.6855 4.19621 19.7961 4.28994 19.889C4.3829 19.9827 4.4935 20.0571 4.61536 20.1079C4.73722 20.1587 4.86793 20.1848 4.99994 20.1848C5.13195 20.1848 5.26266 20.1587 5.38452 20.1079C5.50638 20.0571 5.61698 19.9827 5.70994 19.889L11.9999 13.589L18.2899 19.889C18.3829 19.9827 18.4935 20.0571 18.6154 20.1079C18.7372 20.1587 18.8679 20.1848 18.9999 20.1848C19.132 20.1848 19.2627 20.1587 19.3845 20.1079C19.5064 20.0571 19.617 19.9827 19.7099 19.889C19.8037 19.7961 19.8781 19.6855 19.9288 19.5636C19.9796 19.4417 20.0057 19.311 20.0057 19.179C20.0057 19.047 19.9796 18.9163 19.9288 18.7944C19.8781 18.6726 19.8037 18.562 19.7099 18.469L13.4099 12.179Z" fill="white" style="fill:white;fill-opacity:1;"/>
</svg>
