<svg width="120" height="26" viewBox="0 0 120 26" fill="none" xmlns="http://www.w3.org/2000/svg">
<path d="M21.032 18.694L20.216 22.678C18.008 23.606 15.592 24.07 12.968 24.07C11.288 24.07 9.72003 23.83 8.26403 23.35C6.80803 22.854 5.54403 22.174 4.47203 21.31C3.41603 20.43 2.58403 19.382 1.97603 18.166C1.36803 16.95 1.06403 15.606 1.06403 14.134C1.06403 12.678 1.38403 11.334 2.02403 10.102C2.66403 8.87003 3.53603 7.81403 4.64003 6.93403C5.76003 6.03803 7.06403 5.34203 8.55204 4.84603C10.04 4.35003 11.632 4.10203 13.328 4.10203C15.616 4.10203 18.032 4.56603 20.576 5.49403C20.64 6.16603 20.696 6.83003 20.744 7.48603C20.808 8.14204 20.864 8.80604 20.912 9.47803H20.216C19.416 6.51803 17.2 5.03803 13.568 5.03803C12.272 5.03803 11.064 5.25403 9.94404 5.68603C8.84003 6.10203 7.88003 6.68603 7.06403 7.43803C6.24803 8.17403 5.60803 9.05403 5.14403 10.078C4.68003 11.102 4.44803 12.222 4.44803 13.438C4.44803 14.75 4.68803 15.99 5.16803 17.158C5.66403 18.326 6.32803 19.358 7.16003 20.254C8.00803 21.134 9.00003 21.838 10.136 22.366C11.272 22.878 12.488 23.134 13.784 23.134C14.632 23.134 15.416 23.03 16.136 22.822C16.856 22.598 17.496 22.286 18.056 21.886C18.616 21.47 19.08 20.974 19.448 20.398C19.816 19.822 20.072 19.174 20.216 18.454L21.032 18.694ZM41.7598 5.20603C41.2478 5.20603 40.8158 5.24603 40.4638 5.32603C40.1278 5.40603 39.8558 5.56603 39.6478 5.80603C39.4558 6.03003 39.3118 6.35003 39.2158 6.76603C39.1358 7.16603 39.0958 7.69403 39.0958 8.35003V16.294C39.0958 21.494 36.3758 24.094 30.9358 24.094C25.4158 24.094 22.6558 21.494 22.6558 16.294V8.35003C22.6558 7.67803 22.6158 7.14203 22.5358 6.74203C22.4558 6.32603 22.3198 6.00603 22.1278 5.78203C21.9358 5.54203 21.6718 5.39003 21.3358 5.32603C20.9998 5.24603 20.5838 5.20603 20.0878 5.20603V4.51003C20.2798 4.51003 20.5598 4.51803 20.9278 4.53403C21.3118 4.55003 21.7118 4.56603 22.1278 4.58203C22.5438 4.58203 22.9358 4.59003 23.3038 4.60603C23.6878 4.62203 23.9758 4.63003 24.1678 4.63003C24.3598 4.63003 24.6398 4.62203 25.0078 4.60603C25.3918 4.59003 25.7918 4.58203 26.2078 4.58203C26.6238 4.56603 27.0158 4.55003 27.3838 4.53403C27.7678 4.51803 28.0558 4.51003 28.2478 4.51003V5.20603C27.7678 5.20603 27.3598 5.25403 27.0238 5.35003C26.7038 5.44603 26.4398 5.63003 26.2318 5.90203C26.0398 6.15803 25.8958 6.51803 25.7998 6.98203C25.7198 7.43003 25.6798 8.00603 25.6798 8.71003V15.118C25.6798 20.398 27.4318 23.038 30.9358 23.038C34.3438 23.038 36.0478 20.398 36.0478 15.118V8.71003C36.0478 7.95803 36.0078 7.35803 35.9278 6.91003C35.8478 6.44603 35.7118 6.08603 35.5198 5.83003C35.3438 5.57403 35.0958 5.40603 34.7758 5.32603C34.4718 5.24603 34.0798 5.20603 33.5998 5.20603V4.51003C33.7758 4.51003 34.0478 4.51803 34.4158 4.53403C34.7998 4.55003 35.1998 4.56603 35.6158 4.58203C36.0318 4.58203 36.4318 4.59003 36.8158 4.60603C37.1998 4.62203 37.4878 4.63003 37.6798 4.63003C37.8718 4.63003 38.1518 4.62203 38.5198 4.60603C38.9038 4.59003 39.3038 4.58203 39.7198 4.58203C40.1358 4.56603 40.5278 4.55003 40.8958 4.53403C41.2798 4.51803 41.5678 4.51003 41.7598 4.51003V5.20603ZM58.1679 19.414L56.9919 23.686C55.3759 23.67 53.8879 23.646 52.5279 23.614C51.9519 23.598 51.3679 23.59 50.7759 23.59C50.1839 23.574 49.6319 23.566 49.1199 23.566C48.6239 23.55 48.1839 23.542 47.7999 23.542C47.4159 23.526 47.1279 23.518 46.9359 23.518C46.7119 23.518 46.0559 23.526 44.9679 23.542C43.8959 23.558 42.4319 23.606 40.5759 23.686V22.99C41.2159 22.99 41.7279 22.942 42.1119 22.846C42.5119 22.75 42.8159 22.59 43.0239 22.366C43.2479 22.126 43.3919 21.814 43.4559 21.43C43.5359 21.046 43.5759 20.566 43.5759 19.99V7.15003C43.5759 6.79803 43.5439 6.51003 43.4799 6.28603C43.4159 6.04603 43.2799 5.85403 43.0719 5.71003C42.8799 5.56603 42.5999 5.45403 42.2319 5.37403C41.8799 5.29403 41.4079 5.23003 40.8159 5.18203V4.48603C41.0239 4.48603 41.3599 4.50203 41.8239 4.53403C42.2879 4.55003 42.7759 4.57403 43.2879 4.60603C43.7999 4.63803 44.2879 4.67003 44.7519 4.70203C45.2159 4.71803 45.5599 4.72603 45.7839 4.72603C45.9439 4.72603 46.1839 4.71803 46.5039 4.70203C46.8399 4.67003 47.1919 4.63803 47.5599 4.60603C47.9439 4.57403 48.2959 4.55003 48.6159 4.53403C48.9519 4.50203 49.1999 4.48603 49.3599 4.48603V5.18203C48.7839 5.21403 48.3199 5.27803 47.9679 5.37403C47.6159 5.47003 47.3359 5.63003 47.1279 5.85403C46.9199 6.06203 46.7759 6.35803 46.6959 6.74203C46.6319 7.11003 46.5999 7.59003 46.5999 8.18203V19.63C46.5999 20.19 46.6559 20.654 46.7679 21.022C46.8959 21.39 47.1119 21.686 47.4159 21.91C47.7199 22.134 48.1199 22.294 48.6159 22.39C49.1119 22.486 49.7439 22.534 50.5119 22.534C52.5599 22.534 53.9439 22.406 54.6639 22.15C56.0079 21.686 56.9039 20.694 57.3519 19.174L58.1679 19.414ZM70.335 25.078C70.239 25.142 70.159 25.142 70.095 25.078L68.031 23.254C67.903 23.142 67.903 23.022 68.031 22.894L69.975 20.83C70.103 20.702 70.223 20.702 70.335 20.83L72.279 22.894C72.391 23.022 72.391 23.142 72.279 23.254L70.335 25.078ZM92.4371 23.686C91.5731 23.606 90.8051 23.55 90.1331 23.518C89.4771 23.47 88.9011 23.446 88.4051 23.446C87.9891 23.446 87.4371 23.47 86.7491 23.518C86.0771 23.55 85.2771 23.606 84.3491 23.686V22.99C85.7571 22.926 86.4611 22.542 86.4611 21.838C86.4611 21.502 86.3331 21.078 86.0771 20.566L84.5891 16.294H77.2931L76.0211 19.63C75.7331 20.382 75.5891 20.982 75.5891 21.43C75.5891 22.47 76.5411 22.99 78.4451 22.99V23.686C77.3571 23.606 76.4771 23.55 75.8051 23.518C75.1491 23.47 74.6851 23.446 74.4131 23.446C74.0931 23.446 73.6451 23.47 73.0691 23.518C72.5091 23.55 71.7971 23.606 70.9331 23.686V22.99C71.3651 22.99 71.7411 22.942 72.0611 22.846C72.3971 22.75 72.7011 22.582 72.9731 22.342C73.2451 22.102 73.4931 21.782 73.7171 21.382C73.9411 20.982 74.1731 20.478 74.4131 19.87L79.5011 6.45403C79.2451 5.71803 78.3971 5.29403 76.9571 5.18203V4.48603C77.5331 4.56603 78.2131 4.63003 78.9971 4.67803C79.7811 4.71003 80.6771 4.72603 81.6851 4.72603C84.0371 4.72603 85.5811 4.64603 86.3171 4.48603V5.18203C84.7971 5.18203 83.9091 5.68603 83.6531 6.69404L89.3171 20.902C89.4611 21.27 89.6211 21.582 89.7971 21.838C89.9731 22.078 90.1811 22.278 90.4211 22.438C90.6611 22.598 90.9411 22.726 91.2611 22.822C91.5811 22.902 91.9731 22.958 92.4371 22.99V23.686ZM84.0131 15.118L80.6531 6.79003L77.6531 15.118H84.0131ZM112.454 16.126C111.878 16.126 111.406 16.174 111.038 16.27C110.686 16.366 110.406 16.526 110.198 16.75C109.99 16.974 109.846 17.278 109.766 17.662C109.686 18.03 109.646 18.494 109.646 19.054V21.502L110.222 21.958V22.558C107.198 23.566 104.318 24.07 101.582 24.07C99.8215 24.07 98.2135 23.838 96.7575 23.374C95.3175 22.91 94.0775 22.246 93.0375 21.382C92.0135 20.518 91.2135 19.478 90.6375 18.262C90.0775 17.03 89.7975 15.654 89.7975 14.134C89.7975 12.678 90.1095 11.334 90.7335 10.102C91.3735 8.87003 92.2375 7.81403 93.3255 6.93403C94.4135 6.03803 95.6855 5.34203 97.1415 4.84603C98.5975 4.35003 100.158 4.10203 101.822 4.10203C103.998 4.10203 106.646 4.56603 109.766 5.49403L110.222 9.35804H109.526C109.382 8.65403 109.102 8.03003 108.686 7.48603C108.286 6.92603 107.774 6.46203 107.15 6.09403C106.526 5.71003 105.806 5.42203 104.99 5.23003C104.174 5.02203 103.278 4.91803 102.302 4.91803C100.99 4.91803 99.7815 5.14203 98.6775 5.59003C97.5735 6.02203 96.6215 6.63803 95.8215 7.43803C95.0375 8.22203 94.4215 9.16603 93.9735 10.27C93.5255 11.374 93.3015 12.59 93.3015 13.918C93.3015 15.198 93.5255 16.398 93.9735 17.518C94.4375 18.622 95.0695 19.598 95.8695 20.446C96.6695 21.278 97.6215 21.934 98.7255 22.414C99.8295 22.894 101.022 23.134 102.302 23.134C103.998 23.134 105.438 22.782 106.622 22.078V18.046C106.622 17.71 106.59 17.43 106.526 17.206C106.478 16.982 106.358 16.798 106.166 16.654C105.974 16.51 105.686 16.398 105.302 16.318C104.934 16.238 104.438 16.174 103.814 16.126V15.43C104.598 15.478 105.31 15.518 105.95 15.55C106.494 15.582 107.006 15.606 107.486 15.622C107.966 15.638 108.262 15.646 108.374 15.646C108.486 15.646 108.694 15.638 108.998 15.622C109.302 15.606 109.646 15.59 110.03 15.574C110.414 15.542 110.822 15.518 111.254 15.502C111.686 15.47 112.086 15.446 112.454 15.43V16.126ZM119.406 23.686C119.246 23.686 118.982 23.678 118.614 23.662C118.262 23.63 117.886 23.598 117.486 23.566C117.086 23.534 116.694 23.51 116.31 23.494C115.942 23.462 115.654 23.446 115.446 23.446C115.238 23.446 114.918 23.462 114.486 23.494C114.07 23.51 113.622 23.534 113.142 23.566C112.678 23.598 112.222 23.63 111.774 23.662C111.342 23.678 111.014 23.686 110.79 23.686V22.99C111.334 22.99 111.782 22.958 112.134 22.894C112.502 22.814 112.79 22.694 112.998 22.534C113.206 22.358 113.35 22.126 113.43 21.838C113.526 21.55 113.574 21.198 113.574 20.782V7.17403C113.574 6.82203 113.542 6.52603 113.478 6.28603C113.414 6.04603 113.278 5.85403 113.07 5.71003C112.878 5.56603 112.598 5.45403 112.23 5.37403C111.862 5.29403 111.382 5.23003 110.79 5.18203V4.48603C111.846 4.53403 112.774 4.56603 113.574 4.58203C114.374 4.59803 115.054 4.60603 115.614 4.60603C116.078 4.60603 116.622 4.59803 117.246 4.58203C117.87 4.55003 118.59 4.51803 119.406 4.48603V5.18203C118.83 5.21403 118.358 5.28603 117.99 5.39803C117.638 5.49403 117.358 5.65403 117.15 5.87803C116.942 6.10203 116.798 6.40603 116.718 6.79003C116.638 7.15803 116.598 7.63003 116.598 8.20603V19.726C116.598 20.414 116.638 20.974 116.718 21.406C116.798 21.822 116.942 22.15 117.15 22.39C117.358 22.63 117.646 22.79 118.014 22.87C118.382 22.95 118.846 22.99 119.406 22.99V23.686Z" fill="white" style="fill:white;fill-opacity:1;"/>
<path d="M58.9027 0.430034C59.5747 0.478034 60.1987 0.518034 60.7747 0.550034C61.2707 0.582034 61.7507 0.614034 62.2147 0.646034C62.6787 0.662034 62.9987 0.670034 63.1747 0.670034C63.3187 0.670034 63.4867 0.670034 63.6787 0.670034C63.8867 0.654034 64.1507 0.638034 64.4707 0.622035C64.7907 0.590034 65.1907 0.566034 65.6707 0.550034C66.1507 0.518034 66.7427 0.478034 67.4467 0.430034V1.12603C66.9027 1.12603 66.4547 1.17403 66.1027 1.27003C65.7507 1.35003 65.4707 1.50203 65.2627 1.72603C65.0547 1.95003 64.9027 2.24603 64.8067 2.61403C64.7267 2.98203 64.6867 3.45403 64.6867 4.03003V4.48603H69.1987C71.0067 4.48603 72.0787 4.25403 72.4147 3.79003H73.0147L73.6867 9.57404H73.0147C72.8867 8.79003 72.7187 8.13403 72.5107 7.60603C72.3027 7.07803 72.0147 6.66203 71.6467 6.35803C71.2947 6.05403 70.8387 5.83803 70.2787 5.71003C69.7347 5.58203 69.0627 5.51803 68.2627 5.51803H64.6867V19.534C64.6867 20.302 64.7267 20.918 64.8067 21.382C64.9027 21.83 65.0627 22.174 65.2867 22.414C65.5267 22.654 65.8467 22.814 66.2467 22.894C66.6627 22.958 67.1827 22.99 67.8067 22.99V23.686C67.0387 23.654 66.3347 23.614 65.6947 23.566C65.1347 23.534 64.5907 23.51 64.0627 23.494C63.5347 23.462 63.1587 23.446 62.9347 23.446C62.7747 23.446 62.4867 23.462 62.0707 23.494C61.6547 23.51 61.2147 23.534 60.7507 23.566C60.3027 23.598 59.8787 23.63 59.4787 23.662C59.0787 23.678 58.8067 23.686 58.6627 23.686V22.99C59.3027 22.99 59.8147 22.958 60.1987 22.894C60.5987 22.814 60.9027 22.694 61.1107 22.534C61.3347 22.358 61.4787 22.134 61.5427 21.862C61.6227 21.574 61.6627 21.222 61.6627 20.806V5.51803H58.4227C57.6227 5.51803 56.9427 5.58203 56.3827 5.71003C55.8387 5.83803 55.3827 6.05403 55.0147 6.35803C54.6467 6.66203 54.3587 7.07803 54.1507 7.60603C53.9587 8.13403 53.8067 8.79003 53.6947 9.57404H52.8787L53.5747 3.79003H54.2707C54.6387 4.25403 55.7187 4.48603 57.5107 4.48603H61.6627V2.97403C61.6627 2.65403 61.6307 2.39003 61.5667 2.18203C61.5027 1.95803 61.3747 1.77403 61.1827 1.63003C60.9907 1.48603 60.7107 1.38203 60.3427 1.31803C59.9907 1.23803 59.5107 1.17403 58.9027 1.12603V0.430034Z" fill="#B43640" style="fill:#B43640;fill:color(display-p3 0.7059 0.2118 0.2510);fill-opacity:1;"/>
</svg>
