<svg width="423" height="125" viewBox="0 0 423 125" fill="none" xmlns="http://www.w3.org/2000/svg">
<g opacity="0.1">
<path d="M70.5179 124.032L71.2023 83.7257L36.6439 62.9907L1.40124 82.4939L0.716919 122.801L35.2068 143.536L70.5179 124.032Z" stroke="#E6E7E8" style="stroke:#E6E7E8;stroke:color(display-p3 0.9020 0.9059 0.9098);stroke-opacity:1;" stroke-width="0.5" stroke-miterlimit="10"/>
<path d="M1.40125 82.4941L35.9596 103.161L71.2022 83.7259" stroke="#E6E7E8" style="stroke:#E6E7E8;stroke:color(display-p3 0.9020 0.9059 0.9098);stroke-opacity:1;" stroke-width="0.5" stroke-miterlimit="10"/>
<path d="M140.251 125.264L141.003 84.9577L106.445 64.2227L71.2022 83.7259L70.5179 124.033L105.008 144.768L140.251 125.264Z" stroke="#E6E7E8" style="stroke:#E6E7E8;stroke:color(display-p3 0.9020 0.9059 0.9098);stroke-opacity:1;" stroke-width="0.5" stroke-miterlimit="10"/>
<path d="M71.2022 83.7261L105.761 104.461L141.003 84.9579" stroke="#E6E7E8" style="stroke:#E6E7E8;stroke:color(display-p3 0.9020 0.9059 0.9098);stroke-opacity:1;" stroke-width="0.5" stroke-miterlimit="10"/>
<path d="M105.761 104.461L105.008 144.768" stroke="#E6E7E8" style="stroke:#E6E7E8;stroke:color(display-p3 0.9020 0.9059 0.9098);stroke-opacity:1;" stroke-width="0.5" stroke-miterlimit="10"/>
<path d="M210.052 126.496L210.736 86.1896L176.246 65.4546L141.004 84.9578L140.251 125.264L174.809 145.999L210.052 126.496Z" stroke="#E6E7E8" style="stroke:#E6E7E8;stroke:color(display-p3 0.9020 0.9059 0.9098);stroke-opacity:1;" stroke-width="0.5" stroke-miterlimit="10"/>
<path d="M141.003 84.9575L175.493 105.693L210.804 86.1893" stroke="#E6E7E8" style="stroke:#E6E7E8;stroke:color(display-p3 0.9020 0.9059 0.9098);stroke-opacity:1;" stroke-width="0.5" stroke-miterlimit="10"/>
<path d="M175.493 105.692L174.809 145.999" stroke="#E6E7E8" style="stroke:#E6E7E8;stroke:color(display-p3 0.9020 0.9059 0.9098);stroke-opacity:1;" stroke-width="0.5" stroke-miterlimit="10"/>
<path d="M279.853 127.728L280.537 87.421L246.047 66.686L210.736 86.1893L210.052 126.496L244.61 147.231L279.853 127.728Z" stroke="#E6E7E8" style="stroke:#E6E7E8;stroke:color(display-p3 0.9020 0.9059 0.9098);stroke-opacity:1;" stroke-width="0.5" stroke-miterlimit="10"/>
<path d="M210.804 86.1895L245.294 106.924L280.537 87.4212" stroke="#E6E7E8" style="stroke:#E6E7E8;stroke:color(display-p3 0.9020 0.9059 0.9098);stroke-opacity:1;" stroke-width="0.5" stroke-miterlimit="10"/>
<path d="M245.294 106.924L244.61 147.231" stroke="#E6E7E8" style="stroke:#E6E7E8;stroke:color(display-p3 0.9020 0.9059 0.9098);stroke-opacity:1;" stroke-width="0.5" stroke-miterlimit="10"/>
<path d="M349.654 128.96L350.338 88.653L315.78 67.918L280.537 87.4212L279.853 127.728L314.411 148.463L349.654 128.96Z" stroke="#E6E7E8" style="stroke:#E6E7E8;stroke:color(display-p3 0.9020 0.9059 0.9098);stroke-opacity:1;" stroke-width="0.5" stroke-miterlimit="10"/>
<path d="M280.537 87.4214L315.095 108.156L350.338 88.6532" stroke="#E6E7E8" style="stroke:#E6E7E8;stroke:color(display-p3 0.9020 0.9059 0.9098);stroke-opacity:1;" stroke-width="0.5" stroke-miterlimit="10"/>
<path d="M315.095 108.156L314.411 148.463" stroke="#E6E7E8" style="stroke:#E6E7E8;stroke:color(display-p3 0.9020 0.9059 0.9098);stroke-opacity:1;" stroke-width="0.5" stroke-miterlimit="10"/>
<path d="M138.54 180.352L139.293 140.046L104.734 119.242L69.4917 138.814L68.739 179.12L103.297 199.855L138.54 180.352Z" stroke="#BCBEC0" style="stroke:#BCBEC0;stroke:color(display-p3 0.7373 0.7451 0.7529);stroke-opacity:1;" stroke-width="0.5" stroke-miterlimit="10"/>
<path d="M208.341 181.584L209.025 141.277L174.535 120.542L139.293 140.046L138.54 180.352L173.098 201.087L208.341 181.584Z" stroke="#BCBEC0" style="stroke:#BCBEC0;stroke:color(display-p3 0.7373 0.7451 0.7529);stroke-opacity:1;" stroke-width="0.5" stroke-miterlimit="10"/>
<path d="M278.142 182.816L278.826 142.509L244.336 121.774L209.025 141.277L208.341 181.584L242.899 202.319L278.142 182.816Z" stroke="#BCBEC0" style="stroke:#BCBEC0;stroke:color(display-p3 0.7373 0.7451 0.7529);stroke-opacity:1;" stroke-width="0.5" stroke-miterlimit="10"/>
<path d="M347.943 184.048L348.627 143.741L314.069 123.006L278.826 142.51L278.142 182.816L312.632 203.551L347.943 184.048Z" stroke="#BCBEC0" style="stroke:#BCBEC0;stroke:color(display-p3 0.7373 0.7451 0.7529);stroke-opacity:1;" stroke-width="0.5" stroke-miterlimit="10"/>
<path d="M417.676 185.279L418.428 144.973L383.87 124.238L348.627 143.741L347.943 184.048L382.433 204.783L417.676 185.279Z" stroke="#BCBEC0" style="stroke:#BCBEC0;stroke:color(display-p3 0.7373 0.7451 0.7529);stroke-opacity:1;" stroke-width="0.5" stroke-miterlimit="10"/>
<path d="M243.994 121.569L244.746 81.2624L210.188 60.459L174.945 80.0306L174.261 120.269L208.751 141.072L243.994 121.569Z" stroke="#BCBEC0" style="stroke:#BCBEC0;stroke:color(display-p3 0.7373 0.7451 0.7529);stroke-opacity:1;" stroke-width="0.5" stroke-miterlimit="10"/>
<path d="M174.945 80.0303L209.504 100.697L244.746 81.2621" stroke="#BCBEC0" style="stroke:#BCBEC0;stroke:color(display-p3 0.7373 0.7451 0.7529);stroke-opacity:1;" stroke-width="0.5" stroke-miterlimit="10"/>
<path d="M209.504 100.697L208.751 141.072" stroke="#BCBEC0" style="stroke:#BCBEC0;stroke:color(display-p3 0.7373 0.7451 0.7529);stroke-opacity:1;" stroke-width="0.5" stroke-miterlimit="10"/>
<path d="M313.795 122.801L314.479 82.4939L279.989 61.6904L244.747 81.2621L243.994 121.569L278.552 142.304L313.795 122.801Z" stroke="#BCBEC0" style="stroke:#BCBEC0;stroke:color(display-p3 0.7373 0.7451 0.7529);stroke-opacity:1;" stroke-width="0.5" stroke-miterlimit="10"/>
<path d="M244.746 81.2622L279.236 101.929L314.479 82.494" stroke="#BCBEC0" style="stroke:#BCBEC0;stroke:color(display-p3 0.7373 0.7451 0.7529);stroke-opacity:1;" stroke-width="0.5" stroke-miterlimit="10"/>
<path d="M279.237 101.929L278.552 142.304" stroke="#BCBEC0" style="stroke:#BCBEC0;stroke:color(display-p3 0.7373 0.7451 0.7529);stroke-opacity:1;" stroke-width="0.5" stroke-miterlimit="10"/>
<path d="M383.596 124.032L384.28 83.7257L349.79 62.9907L314.479 82.4939L313.795 122.801L348.353 143.536L383.596 124.032Z" stroke="#BCBEC0" style="stroke:#BCBEC0;stroke:color(display-p3 0.7373 0.7451 0.7529);stroke-opacity:1;" stroke-width="0.5" stroke-miterlimit="10"/>
<path d="M314.479 82.4941L349.038 103.161L384.28 83.7259" stroke="#BCBEC0" style="stroke:#BCBEC0;stroke:color(display-p3 0.7373 0.7451 0.7529);stroke-opacity:1;" stroke-width="0.5" stroke-miterlimit="10"/>
<path d="M349.038 103.161L348.353 143.536" stroke="#BCBEC0" style="stroke:#BCBEC0;stroke:color(display-p3 0.7373 0.7451 0.7529);stroke-opacity:1;" stroke-width="0.5" stroke-miterlimit="10"/>
<path d="M453.397 125.264L454.081 84.9577L419.523 64.2227L384.28 83.7259L383.596 124.033L418.154 144.768L453.397 125.264Z" stroke="#BCBEC0" style="stroke:#BCBEC0;stroke:color(display-p3 0.7373 0.7451 0.7529);stroke-opacity:1;" stroke-width="0.5" stroke-miterlimit="10"/>
<path d="M384.28 83.7261L418.839 104.461L454.081 84.9579" stroke="#BCBEC0" style="stroke:#BCBEC0;stroke:color(display-p3 0.7373 0.7451 0.7529);stroke-opacity:1;" stroke-width="0.5" stroke-miterlimit="10"/>
<path d="M210.052 61.5539L210.736 21.3156L176.246 0.512207L141.004 20.0839L140.251 60.3221L174.809 81.1255L210.052 61.5539Z" stroke="#BCBEC0" style="stroke:#BCBEC0;stroke:color(display-p3 0.7373 0.7451 0.7529);stroke-opacity:1;" stroke-width="0.5" stroke-miterlimit="10"/>
<path d="M175.493 40.7505L174.809 81.1256" stroke="#BCBEC0" style="stroke:#BCBEC0;stroke:color(display-p3 0.7373 0.7451 0.7529);stroke-opacity:1;" stroke-width="0.5" stroke-miterlimit="10"/>
<path d="M279.853 62.8537L280.537 22.5471L246.047 1.74365L210.736 21.3153L210.052 61.5535L244.61 82.357L279.853 62.8537Z" stroke="#BCBEC0" style="stroke:#BCBEC0;stroke:color(display-p3 0.7373 0.7451 0.7529);stroke-opacity:1;" stroke-width="0.5" stroke-miterlimit="10"/>
<path d="M245.294 41.9824L244.61 82.3575" stroke="#BCBEC0" style="stroke:#BCBEC0;stroke:color(display-p3 0.7373 0.7451 0.7529);stroke-opacity:1;" stroke-width="0.5" stroke-miterlimit="10"/>
<path d="M349.654 64.0862L350.338 23.7795L315.78 2.97607L280.537 22.5477L279.853 62.8544L314.343 83.5894L349.654 64.0862Z" stroke="#BCBEC0" style="stroke:#BCBEC0;stroke:color(display-p3 0.7373 0.7451 0.7529);stroke-opacity:1;" stroke-width="0.5" stroke-miterlimit="10"/>
<path d="M315.095 43.2139L314.342 83.589" stroke="#BCBEC0" style="stroke:#BCBEC0;stroke:color(display-p3 0.7373 0.7451 0.7529);stroke-opacity:1;" stroke-width="0.5" stroke-miterlimit="10"/>
<path d="M419.386 65.3176L420.139 25.011L385.581 4.20752L350.338 23.7792L349.654 64.0858L384.144 84.8208L419.386 65.3176Z" stroke="#BCBEC0" style="stroke:#BCBEC0;stroke:color(display-p3 0.7373 0.7451 0.7529);stroke-opacity:1;" stroke-width="0.5" stroke-miterlimit="10"/>
<path d="M384.896 44.4458L384.143 84.8209" stroke="#BCBEC0" style="stroke:#BCBEC0;stroke:color(display-p3 0.7373 0.7451 0.7529);stroke-opacity:1;" stroke-width="0.5" stroke-miterlimit="10"/>
</g>
</svg>
