<svg width="119" height="26" viewBox="0 0 119 26" fill="none" xmlns="http://www.w3.org/2000/svg">
<path d="M20.032 19.1871L19.216 23.1711C17.008 24.0991 14.592 24.5631 11.968 24.5631C10.288 24.5631 8.72003 24.3231 7.26403 23.8431C5.80803 23.3471 4.54403 22.6671 3.47203 21.8031C2.41603 20.9231 1.58403 19.8751 0.976034 18.6591C0.368034 17.4431 0.0640345 16.0991 0.0640345 14.6271C0.0640345 13.1711 0.384035 11.8271 1.02403 10.5951C1.66403 9.36308 2.53603 8.30708 3.64003 7.42708C4.76003 6.53108 6.06403 5.83508 7.55204 5.33908C9.04004 4.84308 10.632 4.59508 12.328 4.59508C14.616 4.59508 17.032 5.05908 19.576 5.98708C19.64 6.65908 19.696 7.32308 19.744 7.97908C19.808 8.63508 19.864 9.29908 19.912 9.97108H19.216C18.416 7.01108 16.2 5.53108 12.568 5.53108C11.272 5.53108 10.064 5.74708 8.94404 6.17908C7.84003 6.59508 6.88003 7.17908 6.06403 7.93108C5.24803 8.66708 4.60803 9.54708 4.14403 10.5711C3.68003 11.5951 3.44803 12.7151 3.44803 13.9311C3.44803 15.2431 3.68803 16.4831 4.16803 17.6511C4.66403 18.8191 5.32803 19.8511 6.16003 20.7471C7.00803 21.6271 8.00003 22.3311 9.13603 22.8591C10.272 23.3711 11.488 23.6271 12.784 23.6271C13.632 23.6271 14.416 23.5231 15.136 23.3151C15.856 23.0911 16.496 22.7791 17.056 22.3791C17.616 21.9631 18.08 21.4671 18.448 20.8911C18.816 20.3151 19.072 19.6671 19.216 18.9471L20.032 19.1871ZM40.7598 5.69908C40.2478 5.69908 39.8158 5.73908 39.4638 5.81908C39.1278 5.89908 38.8558 6.05908 38.6478 6.29908C38.4558 6.52308 38.3118 6.84308 38.2158 7.25908C38.1358 7.65908 38.0958 8.18708 38.0958 8.84308V16.7871C38.0958 21.9871 35.3758 24.5871 29.9358 24.5871C24.4158 24.5871 21.6558 21.9871 21.6558 16.7871V8.84308C21.6558 8.17108 21.6158 7.63508 21.5358 7.23508C21.4558 6.81908 21.3198 6.49908 21.1278 6.27508C20.9358 6.03508 20.6718 5.88308 20.3358 5.81908C19.9998 5.73908 19.5838 5.69908 19.0878 5.69908V5.00308C19.2798 5.00308 19.5598 5.01108 19.9278 5.02708C20.3118 5.04308 20.7118 5.05908 21.1278 5.07508C21.5438 5.07508 21.9358 5.08308 22.3038 5.09908C22.6878 5.11508 22.9758 5.12308 23.1678 5.12308C23.3598 5.12308 23.6398 5.11508 24.0078 5.09908C24.3918 5.08308 24.7918 5.07508 25.2078 5.07508C25.6238 5.05908 26.0158 5.04308 26.3838 5.02708C26.7678 5.01108 27.0558 5.00308 27.2478 5.00308V5.69908C26.7678 5.69908 26.3598 5.74708 26.0238 5.84308C25.7038 5.93908 25.4398 6.12308 25.2318 6.39508C25.0398 6.65108 24.8958 7.01108 24.7998 7.47508C24.7198 7.92308 24.6798 8.49908 24.6798 9.20308V15.6111C24.6798 20.8911 26.4318 23.5311 29.9358 23.5311C33.3438 23.5311 35.0478 20.8911 35.0478 15.6111V9.20308C35.0478 8.45108 35.0078 7.85108 34.9278 7.40308C34.8478 6.93908 34.7118 6.57908 34.5198 6.32308C34.3438 6.06708 34.0958 5.89908 33.7758 5.81908C33.4718 5.73908 33.0798 5.69908 32.5998 5.69908V5.00308C32.7758 5.00308 33.0478 5.01108 33.4158 5.02708C33.7998 5.04308 34.1998 5.05908 34.6158 5.07508C35.0318 5.07508 35.4318 5.08308 35.8158 5.09908C36.1998 5.11508 36.4878 5.12308 36.6798 5.12308C36.8718 5.12308 37.1518 5.11508 37.5198 5.09908C37.9038 5.08308 38.3038 5.07508 38.7198 5.07508C39.1358 5.05908 39.5278 5.04308 39.8958 5.02708C40.2798 5.01108 40.5678 5.00308 40.7598 5.00308V5.69908ZM57.1679 19.9071L55.9919 24.1791C54.3759 24.1631 52.8879 24.1391 51.5279 24.1071C50.9519 24.0911 50.3679 24.0831 49.7759 24.0831C49.1839 24.0671 48.6319 24.0591 48.1199 24.0591C47.6239 24.0431 47.1839 24.0351 46.7999 24.0351C46.4159 24.0191 46.1279 24.0111 45.9359 24.0111C45.7119 24.0111 45.0559 24.0191 43.9679 24.0351C42.8959 24.0511 41.4319 24.0991 39.5759 24.1791V23.4831C40.2159 23.4831 40.7279 23.4351 41.1119 23.3391C41.5119 23.2431 41.8159 23.0831 42.0239 22.8591C42.2479 22.6191 42.3919 22.3071 42.4559 21.9231C42.5359 21.5391 42.5759 21.0591 42.5759 20.4831V7.64308C42.5759 7.29108 42.5439 7.00308 42.4799 6.77908C42.4159 6.53908 42.2799 6.34708 42.0719 6.20308C41.8799 6.05908 41.5999 5.94708 41.2319 5.86708C40.8799 5.78708 40.4079 5.72308 39.8159 5.67508V4.97908C40.0239 4.97908 40.3599 4.99508 40.8239 5.02708C41.2879 5.04308 41.7759 5.06708 42.2879 5.09908C42.7999 5.13108 43.2879 5.16308 43.7519 5.19508C44.2159 5.21108 44.5599 5.21908 44.7839 5.21908C44.9439 5.21908 45.1839 5.21108 45.5039 5.19508C45.8399 5.16308 46.1919 5.13108 46.5599 5.09908C46.9439 5.06708 47.2959 5.04308 47.6159 5.02708C47.9519 4.99508 48.1999 4.97908 48.3599 4.97908V5.67508C47.7839 5.70708 47.3199 5.77108 46.9679 5.86708C46.6159 5.96308 46.3359 6.12308 46.1279 6.34708C45.9199 6.55508 45.7759 6.85108 45.6959 7.23508C45.6319 7.60308 45.5999 8.08308 45.5999 8.67508V20.1231C45.5999 20.6831 45.6559 21.1471 45.7679 21.5151C45.8959 21.8831 46.1119 22.1791 46.4159 22.4031C46.7199 22.6271 47.1199 22.7871 47.6159 22.8831C48.1119 22.9791 48.7439 23.0271 49.5119 23.0271C51.5599 23.0271 52.9439 22.8991 53.6639 22.6431C55.0079 22.1791 55.9039 21.1871 56.3519 19.6671L57.1679 19.9071ZM69.335 25.5711C69.239 25.6351 69.159 25.6351 69.095 25.5711L67.031 23.7471C66.903 23.6351 66.903 23.5151 67.031 23.3871L68.975 21.3231C69.103 21.1951 69.223 21.1951 69.335 21.3231L71.279 23.3871C71.391 23.5151 71.391 23.6351 71.279 23.7471L69.335 25.5711Z" fill="white" style="fill:white;fill-opacity:1;"/>
<path d="M57.9027 0.923076C58.5747 0.971076 59.1987 1.01108 59.7747 1.04308C60.2707 1.07508 60.7507 1.10708 61.2147 1.13908C61.6787 1.15508 61.9987 1.16308 62.1747 1.16308C62.3187 1.16308 62.4867 1.16308 62.6787 1.16308C62.8867 1.14708 63.1507 1.13108 63.4707 1.11508C63.7907 1.08308 64.1907 1.05908 64.6707 1.04308C65.1507 1.01108 65.7427 0.971076 66.4467 0.923076V1.61908C65.9027 1.61908 65.4547 1.66708 65.1027 1.76308C64.7507 1.84308 64.4707 1.99508 64.2627 2.21908C64.0547 2.44308 63.9027 2.73908 63.8067 3.10708C63.7267 3.47508 63.6867 3.94708 63.6867 4.52308V4.97908H68.1987C70.0067 4.97908 71.0787 4.74708 71.4147 4.28308H72.0147L72.6867 10.0671H72.0147C71.8867 9.28308 71.7187 8.62708 71.5107 8.09908C71.3027 7.57108 71.0147 7.15508 70.6467 6.85108C70.2947 6.54708 69.8387 6.33108 69.2787 6.20308C68.7347 6.07508 68.0627 6.01108 67.2627 6.01108H63.6867V20.0271C63.6867 20.7951 63.7267 21.4111 63.8067 21.8751C63.9027 22.3231 64.0627 22.6671 64.2867 22.9071C64.5267 23.1471 64.8467 23.3071 65.2467 23.3871C65.6627 23.4511 66.1827 23.4831 66.8067 23.4831V24.1791C66.0387 24.1471 65.3347 24.1071 64.6947 24.0591C64.1347 24.0271 63.5907 24.0031 63.0627 23.9871C62.5347 23.9551 62.1587 23.9391 61.9347 23.9391C61.7747 23.9391 61.4867 23.9551 61.0707 23.9871C60.6547 24.0031 60.2147 24.0271 59.7507 24.0591C59.3027 24.0911 58.8787 24.1231 58.4787 24.1551C58.0787 24.1711 57.8067 24.1791 57.6627 24.1791V23.4831C58.3027 23.4831 58.8147 23.4511 59.1987 23.3871C59.5987 23.3071 59.9027 23.1871 60.1107 23.0271C60.3347 22.8511 60.4787 22.6271 60.5427 22.3551C60.6227 22.0671 60.6627 21.7151 60.6627 21.2991V6.01108H57.4227C56.6227 6.01108 55.9427 6.07508 55.3827 6.20308C54.8387 6.33108 54.3827 6.54708 54.0147 6.85108C53.6467 7.15508 53.3587 7.57108 53.1507 8.09908C52.9587 8.62708 52.8067 9.28308 52.6947 10.0671H51.8787L52.5747 4.28308H53.2707C53.6387 4.74708 54.7187 4.97908 56.5107 4.97908H60.6627V3.46708C60.6627 3.14708 60.6307 2.88308 60.5667 2.67508C60.5027 2.45108 60.3747 2.26708 60.1827 2.12308C59.9907 1.97908 59.7107 1.87508 59.3427 1.81108C58.9907 1.73108 58.5107 1.66708 57.9027 1.61908V0.923076Z" fill="#F2F2F2" style="fill:#F2F2F2;fill:color(display-p3 0.9490 0.9490 0.9490);fill-opacity:1;"/>
<path d="M91.4371 24.1791C90.5731 24.0991 89.8051 24.0431 89.1331 24.0111C88.4771 23.9631 87.9011 23.9391 87.4051 23.9391C86.9891 23.9391 86.4371 23.9631 85.7491 24.0111C85.0771 24.0431 84.2771 24.0991 83.3491 24.1791V23.4831C84.7571 23.4191 85.4611 23.0351 85.4611 22.3311C85.4611 21.9951 85.3331 21.5711 85.0771 21.0591L83.5891 16.7871H76.2931L75.0211 20.1231C74.7331 20.8751 74.5891 21.4751 74.5891 21.9231C74.5891 22.9631 75.5411 23.4831 77.4451 23.4831V24.1791C76.3571 24.0991 75.4771 24.0431 74.8051 24.0111C74.1491 23.9631 73.6851 23.9391 73.4131 23.9391C73.0931 23.9391 72.6451 23.9631 72.0691 24.0111C71.5091 24.0431 70.7971 24.0991 69.9331 24.1791V23.4831C70.3651 23.4831 70.7411 23.4351 71.0611 23.3391C71.3971 23.2431 71.7011 23.0751 71.9731 22.8351C72.2451 22.5951 72.4931 22.2751 72.7171 21.8751C72.9411 21.4751 73.1731 20.9711 73.4131 20.3631L78.5011 6.94708C78.2451 6.21108 77.3971 5.78708 75.9571 5.67508V4.97908C76.5331 5.05908 77.2131 5.12308 77.9971 5.17108C78.7811 5.20308 79.6771 5.21908 80.6851 5.21908C83.0371 5.21908 84.5811 5.13908 85.3171 4.97908V5.67508C83.7971 5.67508 82.9091 6.17908 82.6531 7.18708L88.3171 21.3951C88.4611 21.7631 88.6211 22.0751 88.7971 22.3311C88.9731 22.5711 89.1811 22.7711 89.4211 22.9311C89.6611 23.0911 89.9411 23.2191 90.2611 23.3151C90.5811 23.3951 90.9731 23.4511 91.4371 23.4831V24.1791ZM83.0131 15.6111L79.6531 7.28308L76.6531 15.6111H83.0131ZM111.454 16.6191C110.878 16.6191 110.406 16.6671 110.038 16.7631C109.686 16.8591 109.406 17.0191 109.198 17.2431C108.99 17.4671 108.846 17.7711 108.766 18.1551C108.686 18.5231 108.646 18.9871 108.646 19.5471V21.9951L109.222 22.4511V23.0511C106.198 24.0591 103.318 24.5631 100.582 24.5631C98.8215 24.5631 97.2135 24.3311 95.7575 23.8671C94.3175 23.4031 93.0775 22.7391 92.0375 21.8751C91.0135 21.0111 90.2135 19.9711 89.6375 18.7551C89.0775 17.5231 88.7975 16.1471 88.7975 14.6271C88.7975 13.1711 89.1095 11.8271 89.7335 10.5951C90.3735 9.36308 91.2375 8.30708 92.3255 7.42708C93.4135 6.53108 94.6855 5.83508 96.1415 5.33908C97.5975 4.84308 99.1575 4.59508 100.822 4.59508C102.998 4.59508 105.646 5.05908 108.766 5.98708L109.222 9.85108H108.526C108.382 9.14708 108.102 8.52308 107.686 7.97908C107.286 7.41908 106.774 6.95508 106.15 6.58708C105.526 6.20308 104.806 5.91508 103.99 5.72308C103.174 5.51508 102.278 5.41108 101.302 5.41108C99.9895 5.41108 98.7815 5.63508 97.6775 6.08308C96.5735 6.51508 95.6215 7.13108 94.8215 7.93108C94.0375 8.71508 93.4215 9.65908 92.9735 10.7631C92.5255 11.8671 92.3015 13.0831 92.3015 14.4111C92.3015 15.6911 92.5255 16.8911 92.9735 18.0111C93.4375 19.1151 94.0695 20.0911 94.8695 20.9391C95.6695 21.7711 96.6215 22.4271 97.7255 22.9071C98.8295 23.3871 100.022 23.6271 101.302 23.6271C102.998 23.6271 104.438 23.2751 105.622 22.5711V18.5391C105.622 18.2031 105.59 17.9231 105.526 17.6991C105.478 17.4751 105.358 17.2911 105.166 17.1471C104.974 17.0031 104.686 16.8911 104.302 16.8111C103.934 16.7311 103.438 16.6671 102.814 16.6191V15.9231C103.598 15.9711 104.31 16.0111 104.95 16.0431C105.494 16.0751 106.006 16.0991 106.486 16.1151C106.966 16.1311 107.262 16.1391 107.374 16.1391C107.486 16.1391 107.694 16.1311 107.998 16.1151C108.302 16.0991 108.646 16.0831 109.03 16.0671C109.414 16.0351 109.822 16.0111 110.254 15.9951C110.686 15.9631 111.086 15.9391 111.454 15.9231V16.6191ZM118.406 24.1791C118.246 24.1791 117.982 24.1711 117.614 24.1551C117.262 24.1231 116.886 24.0911 116.486 24.0591C116.086 24.0271 115.694 24.0031 115.31 23.9871C114.942 23.9551 114.654 23.9391 114.446 23.9391C114.238 23.9391 113.918 23.9551 113.486 23.9871C113.07 24.0031 112.622 24.0271 112.142 24.0591C111.678 24.0911 111.222 24.1231 110.774 24.1551C110.342 24.1711 110.014 24.1791 109.79 24.1791V23.4831C110.334 23.4831 110.782 23.4511 111.134 23.3871C111.502 23.3071 111.79 23.1871 111.998 23.0271C112.206 22.8511 112.35 22.6191 112.43 22.3311C112.526 22.0431 112.574 21.6911 112.574 21.2751V7.66708C112.574 7.31508 112.542 7.01908 112.478 6.77908C112.414 6.53908 112.278 6.34708 112.07 6.20308C111.878 6.05908 111.598 5.94708 111.23 5.86708C110.862 5.78708 110.382 5.72308 109.79 5.67508V4.97908C110.846 5.02708 111.774 5.05908 112.574 5.07508C113.374 5.09108 114.054 5.09908 114.614 5.09908C115.078 5.09908 115.622 5.09108 116.246 5.07508C116.87 5.04308 117.59 5.01108 118.406 4.97908V5.67508C117.83 5.70708 117.358 5.77908 116.99 5.89108C116.638 5.98708 116.358 6.14708 116.15 6.37108C115.942 6.59508 115.798 6.89908 115.718 7.28308C115.638 7.65108 115.598 8.12308 115.598 8.69908V20.2191C115.598 20.9071 115.638 21.4671 115.718 21.8991C115.798 22.3151 115.942 22.6431 116.15 22.8831C116.358 23.1231 116.646 23.2831 117.014 23.3631C117.382 23.4431 117.846 23.4831 118.406 23.4831V24.1791Z" fill="#B43640" style="fill:#B43640;fill:color(display-p3 0.7059 0.2118 0.2510);fill-opacity:1;"/>
</svg>
