<svg width="697" height="698" viewBox="0 0 697 698" fill="none" xmlns="http://www.w3.org/2000/svg" xmlns:xlink="http://www.w3.org/1999/xlink">
<circle cx="348.159" cy="348.929" r="200.695" fill="url(#pattern0_10604_44)" style=""/>
<circle cx="348.159" cy="348.929" r="200.695" fill="#B43640" fill-opacity="0.61" style="fill:#B43640;fill:color(display-p3 0.7059 0.2118 0.2510);fill-opacity:0.61;" style="mix-blend-mode:overlay"/>
<circle cx="348.159" cy="348.929" r="200.695" stroke="#404040" style="stroke:#404040;stroke:color(display-p3 0.2510 0.2510 0.2510);stroke-opacity:1;"/>
<path d="M347.809 107.904L348.163 107.551L348.516 107.904L350.852 110.24L352.869 108.223L348.128 103.483L343.387 108.223L345.439 110.275L347.809 107.904ZM347.774 114.025L345.439 111.689L110.887 346.241L113.257 348.611L113.611 348.965L113.257 349.318L110.892 351.684L345.386 586.178L347.756 583.807L348.11 583.454L348.464 583.807L350.887 586.231L585.466 351.652L583.096 349.282L582.742 348.928L583.096 348.574L585.434 346.236L350.852 111.654L348.481 114.025L348.128 114.378L347.774 114.025ZM348.163 108.965L346.146 110.982L348.128 112.964L350.145 110.947L348.163 108.965ZM112.197 348.965L110.18 346.948L108.168 348.96L110.185 350.977L112.197 348.965ZM348.11 584.868L346.093 586.885L348.163 588.955L350.18 586.938L348.11 584.868ZM350.887 587.645L348.516 590.015L348.163 590.369L347.809 590.015L345.386 587.592L343.369 589.609L348.11 594.349L352.851 589.609L350.887 587.645ZM584.156 348.928L586.173 350.945L588.158 348.96L586.141 346.943L584.156 348.928ZM586.848 346.236L589.218 348.606L589.572 348.96L589.218 349.313L586.88 351.652L588.897 353.669L593.637 348.928L588.897 344.187L586.848 346.236ZM107.107 348.606L109.473 346.241L107.456 344.224L102.715 348.965L107.456 353.705L109.478 351.684L107.107 349.313L106.754 348.96L107.107 348.606Z" stroke="#404040" style="stroke:#404040;stroke:color(display-p3 0.2510 0.2510 0.2510);stroke-opacity:1;"/>
<path d="M177.976 178.252H177.476V178.752L177.476 182.054H174.624L174.624 175.35L181.329 175.35V178.252L177.976 178.252ZM182.329 182.554V179.252L514.035 179.252V182.604V183.104H514.535H517.88L517.88 514.728H514.528H514.028V515.228V518.655H182.283V515.304V514.804H181.783H178.476L178.476 183.054H181.829H182.329V182.554ZM178.476 179.252H181.329V182.054H178.476V179.252ZM515.035 182.104V179.252H517.88V182.104H515.035ZM515.028 515.728H517.88V518.655H515.028V515.728ZM515.028 519.655H518.38H518.88V519.155V515.728H521.732V522.433H515.028V519.655ZM181.283 515.804V518.655H178.476V515.804H181.283ZM177.476 515.804L177.476 519.155V519.655H177.976H181.283V522.508H174.579L174.579 515.804H177.476ZM518.38 178.252L515.035 178.252V175.399L521.739 175.399V182.104H518.88V178.752V178.252H518.38Z" stroke="#404040" style="stroke:#404040;stroke:color(display-p3 0.2510 0.2510 0.2510);stroke-opacity:1;"/>
<defs>
<pattern id="pattern0_10604_44" patternContentUnits="objectBoundingBox" width="1" height="1">
<use xlink:href="#image0_10604_44" transform="translate(-0.0962213 0.150097) scale(0.00196449)"/>
</pattern>
 </defs>
</svg>
