<svg width="278" height="153" viewBox="0 0 278 153" fill="none" xmlns="http://www.w3.org/2000/svg">
<path d="M85.492 98.4362C82.6006 93.8275 77.3847 95.2252 75.824 99.0598C77.2733 104.469 86.1427 103.956 85.492 98.4362Z" fill="#B43640" style="fill:#B43640;fill:color(display-p3 0.7059 0.2118 0.2510);fill-opacity:1;"/>
<path d="M42.6246 99.5692C36.4403 93.8758 26.8245 100.49 31.5479 107.3C34.4582 111.593 41.2026 111.649 44.2672 104.927C45.8575 104.294 47.2047 105.071 48.7123 105.289C51.3712 114.825 61.9035 115.109 67.4934 108.538C73.5144 101.645 65.2235 90.408 55.9229 91.2437C51.1178 96.8794 46.7535 94.1147 42.6246 99.5692Z" fill="#B43640" style="fill:#B43640;fill:color(display-p3 0.7059 0.2118 0.2510);fill-opacity:1;"/>
<path d="M87.6654 79.115C83.125 74.534 78.8296 70.0945 72.8547 72.5237C70.0757 70.266 67.2209 69.271 64.2903 69.5386C62.3414 71.9243 59.8817 72.7904 57.0893 75.5056C53.7137 75.2713 50.5691 74.354 46.8436 77.8369C46.0986 79.693 48.4654 81.9576 44.8536 83.5465C48.0897 85.5782 48.0587 86.6217 49.4475 89.873C52.2209 87.4735 54.6325 89.519 57.3611 87.3384C59.2898 89.5134 61.37 89.1631 63.2728 91.2415C65.9565 89.28 68.5317 88.0723 70.8398 89.7315C75.2225 86.3831 82.1804 81.827 87.6654 79.115Z" fill="#B43640" style="fill:#B43640;fill:color(display-p3 0.7059 0.2118 0.2510);fill-opacity:1;"/>
<path d="M103.088 64.4231C108.571 60.1586 110.301 51.9307 104.807 46.8806C104.929 46.9513 100.416 44.0194 99.5143 43.7435C97.8583 43.3589 95.4643 45.2428 93.672 43.963C89.8619 46.7439 88.7236 48.2913 86.6471 51.7464C87.9375 53.4712 88.3775 55.1133 87.2392 56.6606C89.4816 57.3021 88.9626 59.6152 90.1495 60.9536C93.8066 64.943 98.4311 64.4287 103.088 64.4231Z" fill="#B43640" style="fill:#B43640;fill:color(display-p3 0.7059 0.2118 0.2510);fill-opacity:1;"/>
<path d="M18.5939 107.251C25.5846 103.204 17.0317 93.6931 11.8055 97.3711C6.57936 101.049 11.7705 111.15 18.5939 107.251Z" fill="#B43640" style="fill:#B43640;fill:color(display-p3 0.7059 0.2118 0.2510);fill-opacity:1;"/>
<path fill-rule="evenodd" clip-rule="evenodd" d="M262.99 61.5392C261.819 62.5777 260.938 63.5385 260.933 64.6787C260.574 66.4312 263.1 66.5828 262.805 67.8006C261.421 69.2065 260.478 66.457 259.184 67.4248C259.636 68.339 261.692 69.4445 260.005 70.1036C258.536 69.255 257.059 67.9942 255.455 67.8029C255.282 69.0914 255.812 70.2954 257.218 71.6787C255.493 72.9691 254.291 69.2537 252.693 69.4746C250.862 73.0712 246.97 72.4575 244.24 73.0856C243.674 74.0654 244.932 75.2813 243.542 76.2749C241.641 75.749 240.09 71.506 237.832 74.285C236.371 75.4011 238.602 76.7705 236.825 77.8677C235.195 77.5797 236.249 75.3304 235.693 74.0298C230.85 74.4994 231.23 79.7811 230.067 82.7842C231.842 85.932 233.68 86.9926 232.317 89.6353C230.849 90.3392 229.5 88.009 227.943 89.151C226.913 89.9446 227.243 90.7881 227.379 91.6833C226.26 92.9149 225.362 91.4988 224.307 92.1958C222.956 94.1105 225.227 96.4011 224.849 98.4693C223.445 98.6385 222.487 95.0644 221.052 96.2772C219.273 100.067 213.336 101.865 210.079 98.5964C206.981 99.0124 209.187 101.838 207.443 103.444C205.592 101.558 206.293 99.9215 204.976 98.1001C202.289 96.9568 199.433 100.207 198.436 101.509C195.37 96.6365 192.132 93.0524 186.991 97.4324C184.708 95.8698 187.941 94.7967 186.29 93.272C181.507 90.102 176.037 95.1909 171.197 92.9679C165.433 99.2747 160.293 99.4097 154.947 100.324C154.504 101.375 154.061 102.425 153.618 103.476C148.488 101.33 142.958 104.262 137.892 101.582C137.529 100.229 138.429 98.9527 137.217 97.5177C134.626 102.146 132.263 102.986 127.551 105.491C127.239 102.78 124.446 99.6974 121.519 103.07C120.21 101.661 122.302 100.582 120.387 99.232C112.18 98.7394 105.191 110.136 97.3152 106.242C96.8165 103.995 95.2743 101.716 93.0438 100.347C94.3943 98.4322 94.6045 96.5123 92.895 94.3822C95.2247 87.2357 104.194 84.0041 109.318 91.5346C112.386 87.9173 121.316 89.5621 122.859 81.7982C120.056 80.9964 119.074 78.8782 116.947 77.8952C119.426 76.7134 121.67 73.1099 124.768 72.6939C125.952 66.6825 132.928 71.8532 137.261 69.864C139.643 68.7081 140.541 65.8792 142.86 65.258C148.436 63.6603 154.484 68.4585 155.478 75.6461C157.601 73.5243 159.408 75.6285 161.564 74.0155C159.821 71.3766 159.683 68.9289 160.807 66.5571C164.233 65.4322 163.612 63.1139 168.102 63.2567C168.531 61.3817 169.785 59.4928 166.958 60.1468C167.363 59.7276 168.084 59.3273 167.832 58.7736C166.421 58.5305 165.298 56.6575 164.048 55.8538C165.843 54.4409 167.182 59.0515 169.015 57.0073C168.627 55.5584 166.457 56.3468 168.182 55.0564C169.671 55.5893 171.301 55.8772 173.108 53.7365C175.577 54.835 177.988 56.8806 180.755 54.0687C182.34 54.5757 183.779 56.4679 185.305 56.3694C193.212 53.4226 199.628 48.3905 206.912 47.3705C207.007 45.7922 208.477 46.6406 208.527 45.2814C210.892 45.9935 212.996 49.9849 215.865 46.007C212.822 43.9236 215.267 42.2329 213.803 40.2442C218.672 39.8712 218.97 35.9609 221.582 32.5695C224.135 34.3701 227.024 31.6289 228.122 29.1604C229.457 30.6662 231.022 29.9365 232.459 30.2761C234.332 29.1531 232.101 27.7836 233.562 26.6675C234.999 27.0071 236.315 28.8286 238.019 26.3014C239.569 28.9922 243.148 26.8943 243.996 25.4246C245.756 26.1955 245.242 27.3685 246.944 29.0864C247.326 28.708 247.716 28.3619 248.115 28.048C251.29 32.1668 253.973 30.2052 256.318 35.4781C257.496 34.8518 258.686 33.4977 259.725 34.6688C260.28 35.9693 256.487 36.8821 257.867 38.1688C260.372 42.881 263.213 43.0516 267.267 44.6572C265.683 45.7026 264.322 44.1003 262.663 46.4083C263.152 50.9362 267.311 54.4805 269.883 55.9654C268.073 56.5538 266.557 54.3719 264.672 56.2229C262.588 59.2658 268.196 62.4219 269.023 63.9604C267.096 63.3379 265.148 61.4786 262.99 61.5392ZM175.165 82.2767C174.168 83.5791 173.483 81.7955 172.512 83.1945C172.83 84.7659 172.638 86.3701 173.078 88.0122C174.695 87.4756 177.384 84.374 175.165 82.2767Z" fill="#B43640" style="fill:#B43640;fill:color(display-p3 0.7059 0.2118 0.2510);fill-opacity:1;"/>
</svg>
