<svg width="493" height="494" viewBox="0 0 493 494" fill="none" xmlns="http://www.w3.org/2000/svg">
<path d="M245.809 5.90444L246.163 5.55088L246.516 5.90444L248.852 8.23992L250.869 6.22329L246.128 1.48263L241.387 6.22329L243.439 8.2749L245.809 5.90444ZM245.774 12.0246L243.439 9.68912L8.88704 244.241L11.2574 246.611L11.6109 246.965L11.2574 247.318L8.89195 249.684L243.386 484.178L245.756 481.807L246.11 481.454L246.464 481.807L248.887 484.231L483.466 249.652L481.096 247.282L480.742 246.928L481.096 246.574L483.434 244.236L248.852 9.65413L246.481 12.0246L246.128 12.3781L245.774 12.0246ZM246.163 6.9651L244.146 8.98201L246.128 10.9639L248.145 8.94702L246.163 6.9651ZM10.1967 246.965L8.17993 244.948L6.16806 246.96L8.18484 248.977L10.1967 246.965ZM246.11 482.868L244.093 484.885L246.163 486.955L248.18 484.938L246.11 482.868ZM248.887 485.645L246.516 488.015L246.163 488.369L245.809 488.015L243.386 485.592L241.369 487.609L246.11 492.349L250.851 487.609L248.887 485.645ZM482.156 246.928L484.173 248.945L486.158 246.96L484.141 244.943L482.156 246.928ZM484.848 244.236L487.218 246.606L487.572 246.96L487.218 247.313L484.88 249.652L486.897 251.669L491.637 246.928L486.897 242.187L484.848 244.236ZM5.1074 246.606L7.47282 244.241L5.45606 242.224L0.715393 246.965L5.45604 251.705L7.47773 249.684L5.1074 247.313L4.75385 246.96L5.1074 246.606Z" stroke="#404040" style="stroke:#404040;stroke:color(display-p3 0.2510 0.2510 0.2510);stroke-opacity:1;"/>
</svg>
