<svg width="349" height="349" viewBox="0 0 349 349" fill="none" xmlns="http://www.w3.org/2000/svg">
<path d="M3.97617 4.25159H3.47617V4.75159L3.47617 8.05445H0.624221L0.624221 1.35016L7.32851 1.35016V4.25159L3.97617 4.25159ZM8.32851 8.55445V5.25159L340.035 5.25157V8.60373V9.10373H340.535H343.88L343.88 340.728H340.528H340.028V341.228V344.655H8.28309V341.304V340.804H7.78309H4.47618L4.47617 9.05445H7.82851H8.32851V8.55445ZM4.47617 5.25159H7.32851V8.05445H4.47617V5.25159ZM341.035 8.10373V5.25157H343.88V8.10373H341.035ZM341.028 341.728H343.88V344.655H341.028V341.728ZM341.028 345.655H344.38H344.88V345.155V341.728H347.732V348.433H341.028V345.655ZM7.28309 341.804V344.655H4.47618V341.804H7.28309ZM3.47618 341.804L3.47618 345.155V345.655H3.97618H7.28309V348.508H0.578797L0.578796 341.804H3.47618ZM344.38 4.25157L341.035 4.25157V1.39944L347.739 1.39944V8.10373H344.88V4.75157V4.25157H344.38Z" stroke="#404040" style="stroke:#404040;stroke:color(display-p3 0.2510 0.2510 0.2510);stroke-opacity:1;"/>
</svg>
