<svg width="41" height="41" viewBox="0 0 41 41" fill="none" xmlns="http://www.w3.org/2000/svg">
<g clip-path="url(#clip0_10634_9615)">
<g clip-path="url(#clip1_10634_9615)">
<g clip-path="url(#clip2_10634_9615)">
<mask id="mask0_10634_9615" style="mask-type:luminance" maskUnits="userSpaceOnUse" x="0" y="0" width="41" height="41">
<path d="M40.303 0.012207H0.303009V40.0122H40.303V0.012207Z" fill="white" style="fill:white;fill-opacity:1;"/>
</mask>
<g mask="url(#mask0_10634_9615)">
<path fill-rule="evenodd" clip-rule="evenodd" d="M40.303 20.0122C40.303 31.0579 31.3487 40.0122 20.303 40.0122C9.25731 40.0122 0.303009 31.0579 0.303009 20.0122C0.303009 8.96651 9.25731 0.012207 20.303 0.012207C31.3487 0.012207 40.303 8.96651 40.303 20.0122ZM21.0198 14.7749C19.0747 15.584 15.1868 17.2587 9.35636 19.7989C8.40959 20.1754 7.91364 20.5437 7.86849 20.9039C7.79219 21.5125 8.55441 21.7522 9.59234 22.0785C9.73353 22.1229 9.87981 22.1689 10.0298 22.2177C11.0509 22.5495 12.4246 22.9379 13.1387 22.9534C13.7865 22.9674 14.5094 22.7004 15.3076 22.1522C20.7552 18.475 23.5672 16.6163 23.7437 16.5763C23.8683 16.548 24.0408 16.5124 24.1578 16.6164C24.2748 16.7204 24.2633 16.9172 24.2508 16.97C24.1753 17.2919 21.1833 20.0735 19.635 21.5129C19.1523 21.9617 18.81 22.28 18.74 22.3527C18.5832 22.5155 18.4233 22.6695 18.2698 22.8177C17.3212 23.7322 16.6097 24.418 18.3092 25.538C19.126 26.0762 19.7795 26.5212 20.4315 26.9652C21.1435 27.45 21.8537 27.9337 22.7725 28.536C23.0067 28.6895 23.2302 28.8489 23.448 29.0042C24.2767 29.5949 25.0212 30.1257 25.9408 30.041C26.4753 29.9919 27.0273 29.4894 27.3077 27.9905C27.9702 24.4485 29.2725 16.774 29.5735 13.6116C29.6 13.3345 29.5668 12.9799 29.5402 12.8243C29.5135 12.6686 29.4578 12.4468 29.2555 12.2826C29.0158 12.0882 28.646 12.0472 28.4805 12.0501C27.7282 12.0634 26.5742 12.4647 21.0198 14.7749Z" fill="white" style="fill:white;fill-opacity:1;"/>
</g>
</g>
</g>
</g>
<defs>
<clipPath id="clip0_10634_9615">
<rect width="40" height="40" fill="white" style="fill:white;fill-opacity:1;" transform="translate(0.303009 0.012207)"/>
</clipPath>
<clipPath id="clip1_10634_9615">
<rect width="40" height="40" fill="white" style="fill:white;fill-opacity:1;" transform="translate(0.303009 0.012207)"/>
</clipPath>
<clipPath id="clip2_10634_9615">
<rect width="40" height="40" fill="white" style="fill:white;fill-opacity:1;" transform="translate(0.303009 0.012207)"/>
</clipPath>
</defs>
</svg>
