<svg width="734" height="18" viewBox="0 0 734 18" fill="none" xmlns="http://www.w3.org/2000/svg">
<path d="M7.90057 9.22874H726.101H7.90057Z" fill="white" fill-opacity="0.7" style="fill:white;fill-opacity:0.7;"/>
<path d="M7.90057 9.22874H726.101" stroke="#404040" style="stroke:#404040;stroke:color(display-p3 0.2510 0.2510 0.2510);stroke-opacity:1;" stroke-linecap="round" stroke-linejoin="round"/>
<path d="M0.645508 9.19673C6.77963 7.50082 8.80028 4.90283 12.3725 4.90283C16.2695 4.90283 16.9551 9.19673 16.9551 9.19673H0.645508Z" fill="white" fill-opacity="0.7" style="fill:white;fill-opacity:0.7;"/>
<path d="M0.645508 9.19678C6.77963 10.8566 8.80028 13.4546 12.3725 13.4546C16.2695 13.4546 16.9551 9.19678 16.9551 9.19678H0.645508Z" fill="white" fill-opacity="0.7" style="fill:white;fill-opacity:0.7;"/>
<path d="M733.354 9.19671C727.22 7.50081 725.2 4.90282 721.627 4.90282C717.731 4.90282 717.045 9.19671 717.045 9.19671H733.354Z" fill="white" fill-opacity="0.7" style="fill:white;fill-opacity:0.7;"/>
<path d="M733.354 9.19676C727.22 10.8566 725.2 13.4546 721.627 13.4546C717.731 13.4546 717.045 9.19676 717.045 9.19676H733.354Z" fill="white" fill-opacity="0.7" style="fill:white;fill-opacity:0.7;"/>
<path d="M357.929 9.20513L350.484 4.01434L343.038 9.20513L350.484 14.3435L357.929 9.20513Z" fill="white" fill-opacity="0.7" style="fill:white;fill-opacity:0.7;"/>
<path d="M390.961 9.20513L383.516 4.01434L376.071 9.20513L383.516 14.3435L390.961 9.20513Z" fill="white" fill-opacity="0.7" style="fill:white;fill-opacity:0.7;"/>
<path d="M378.955 9.20512L367 0.920898L355.046 9.20512L367 17.437L378.955 9.20512Z" fill="white" fill-opacity="0.7" style="fill:white;fill-opacity:0.7;"/>
</svg>
